PathFileType	4	(X/Y/Z)	Run_400 02
DataRate	CameraRate	NumFrames	NumMarkers	Units	OrigDataRate	OrigDataStartFrame	OrigNumFrames
100	100	4	42	mm	100	202	128
Frame#	Time	LPSI			RPSI			RTH2			RTH3			LTH1			LTH2			LTH3			RTB1			RTB2			LTB1			LTB2			RCAL			RTOE			RMT5			LCAL			LTOE			LMT5			LACR			RACR			CLAV			C7			RUA1			RUA2			RUA3			RLEL			LUA1			LUA2			LUA3			LLEL			LMEL			RFAsuperior			RFAulna			LFAsuperior			LFAradius			LFAulna			RASI			RTB3			LTB3			RMEL			RFAradius			RTH1			LASI			
		X1	Y1	Z1	X2	Y2	Z2	X3	Y3	Z3	X4	Y4	Z4	X5	Y5	Z5	X6	Y6	Z6	X7	Y7	Z7	X8	Y8	Z8	X9	Y9	Z9	X10	Y10	Z10	X11	Y11	Z11	X12	Y12	Z12	X13	Y13	Z13	X14	Y14	Z14	X15	Y15	Z15	X16	Y16	Z16	X17	Y17	Z17	X18	Y18	Z18	X19	Y19	Z19	X20	Y20	Z20	X21	Y21	Z21	X22	Y22	Z22	X23	Y23	Z23	X24	Y24	Z24	X25	Y25	Z25	X26	Y26	Z26	X27	Y27	Z27	X28	Y28	Z28	X29	Y29	Z29	X30	Y30	Z30	X31	Y31	Z31	X32	Y32	Z32	X33	Y33	Z33	X34	Y34	Z34	X35	Y35	Z35	X36	Y36	Z36	X37	Y37	Z37	X38	Y38	Z38	X39	Y39	Z39	X40	Y40	Z40	X41	Y41	Z41	X42	Y42	Z42	

180	2.66	820.605862	1067.392179	-403.171496	834.656028	1055.834059	-291.129995	889.282644	727.5409979999999	-206.177228	947.726285	577.650818	-207.125857	928.947974	887.978801	-542.591668	919.047699	725.149684	-484.997378	1015.751978	616.980235	-482.221416	838.382776	422.227425	-267.288271	793.980823	507.026205	-200.626757	1097.741217	408.979682	-398.939946	992.520025	316.885332	-444.868218	537.759803	586.7533100000001	-267.96995	486.699353	350.81787	-294.919689	462.440981	399.11013	-203.766915	855.541571	100.672435	-342.369695	1092.521686	73.257158	-331.328401	1043.361615	37.281872	-426.828727	954.331094	1484.946418	-529.425647	1006.27194	1466.864218	-208.054188	1047.284178	1435.34582	-344.466694	923.784752	1509.057347	-366.722373	900.72432	1381.575996	-130.247227	941.755867	1318.636213	-103.026844	875.11553	1253.636874	-48.544649	840.931152	1204.64155	-12.604057	844.17484	1397.38276	-575.437725	862.273193	1318.510307	-605.736227	780.398206	1264.81828	-625.659119	750.96784	1205.16081	-646.651753	742.0182119999999	1182.70179	-558.57937	912.596064	1120.417064	-23.236277	1000.533928	997.29569	-72.71917000000001	808.618212	1142.240172	-648.664856	981.917021	1115.252459	-571.291401	963.622463	1056.634295	-607.484617	1000.810901	994.031304	-240.659129	652.21917	458.989817	-272.192338	1016.118252	205.536796	-374.20751	825.040933	1176.040412	-94.821254	1017.215644	1019.419796	-136.184672	929.904547	873.64554	-196.082886	975.991374	1013.605584	-473.227776	
181	2.67	818.1849539999999	1065.824804	-404.14309	830.560884	1054.195357	-292.190496	897.987553	724.247702	-204.191032	966.726991	578.465842	-204.916202	927.329819	885.10213	-542.0214099999999	910.74437	722.661641	-483.825236	1003.612639	611.015327	-479.869944	865.0042089999999	421.252186	-267.056153	818.062893	503.321034	-197.290217	1075.767648	399.092172	-396.568539	966.613749	311.75331	-442.998962	558.82434	578.949958	-268.516141	517.950689	340.743869	-292.799507	493.595458	388.698849	-201.263436	816.692982	101.56448	-342.642203	1053.595777	71.909977	-331.161613	1003.885011	36.355782	-426.383569	956.327227	1480.920864	-530.714603	1003.764454	1463.876449	-207.862597	1046.744727	1432.167424	-343.569035	923.689905	1506.405394	-367.521277	896.0432489999999	1379.533678	-131.203777	935.264492	1316.862589	-103.209415	864.796201	1254.159293	-49.750736	829.402313	1205.589184	-13.932835	849.433194	1388.15401	-576.10868	870.784707	1310.342447	-606.5513549999999	791.057351	1254.039643	-628.011599	765.505782	1192.937291	-650.208771	753.831756	1169.989935	-562.540922	898.950615	1118.397361	-20.849149	982.242787	989.804354	-63.636477	824.660652	1130.754931	-650.795597	995.601597	1103.844613	-568.895472	977.810039	1045.36024	-605.60846	997.137815	991.206079	-240.950156	678.461898	454.445228	-272.261351	982.879068	200.240179	-372.764907	815.487073	1176.561378	-96.159131	999.387986	1007.402102	-128.662808	927.678274	872.088755	-195.718339	973.926802	1011.592077	-473.217409	
182	2.68	817.027502	1066.000947	-405.923734	826.764551	1053.931869	-293.783908	906.555773	723.5908879999999	-202.58258	985.787072	582.56069	-203.417295	926.671465	883.9380630000001	-540.883928	901.199471	721.835552	-483.745584	989.635495	605.968351	-478.224041	892.489749	421.909962	-267.601903	842.19591	500.361759	-195.194216	1051.553171	390.56057	-394.10194	939.700827	307.762699	-441.359881	578.517575	568.428882	-268.699768	551.378832	328.079948	-291.370542	526.286742	375.024762	-199.206421	777.914097	102.783275	-342.594864	1014.628211	71.011771	-330.825079	964.602968	36.735987	-426.987164	959.176835	1478.831849	-531.60961	1000.960531	1462.763538	-207.446321	1046.087902	1430.617446	-342.36598	923.133864	1504.817312	-368.27234	890.499317	1379.982813	-132.254168	927.905636	1317.63244	-103.170028	853.806179	1257.61944	-51.133025	816.597159	1209.577169	-15.374761	854.403609	1382.254263	-576.5961579999999	878.434837	1305.786628	-607.639197	800.830463	1247.058497	-629.687833	779.038277	1184.510988	-652.749901	765.160666	1160.773399	-565.577927	884.445951	1119.805799	-18.809573	963.947704	986.804525	-56.498075	840.35189	1123.670638	-651.962944	1009.320039	1098.017786	-565.780062	992.664983	1039.789984	-603.539697	993.652134	989.950362	-240.347191	704.672938	449.1359	-272.655881	949.036015	196.2549	-371.046445	804.657091	1180.12693	-97.617587	981.992014	1001.265799	-122.323278	925.8147290000001	872.261841	-193.955269	973.1247990000001	1011.314904	-474.010994	
183	2.69	817.420566	1067.554498	-408.338072	824.260774	1054.859813	-295.931731	914.6718540000001	725.689809	-201.649442	1004.322736	589.81682	-202.429499	925.997597	883.924127	-540.213205	891.225288	722.2971240000001	-484.93276	974.490135	602.230227	-477.315157	920.274553	424.664386	-267.644903	866.006217	498.966454	-194.273572	1025.415113	384.203989	-391.655937	911.140098	306.200272	-440.08698	597.1185379999999	555.08299	-268.612583	586.8856029999999	313.320187	-290.283251	560.000223	358.721383	-197.613889	739.117925	104.703664	-342.078312	975.46906	70.62606	-330.442267	925.045992	37.651431	-427.637118	962.888629	1478.670826	-532.070721	997.629374	1463.667724	-206.81133	1045.410346	1430.792331	-340.876062	922.623014	1504.885102	-369.378577	883.866164	1382.812907	-133.931172	919.456123	1321.107369	-102.757786	842.250973	1263.687905	-52.523215	802.662236	1216.399512	-17.085908	859.582704	1379.705046	-577.6770770000001	885.476559	1304.260621	-608.666757	809.561375	1243.520714	-630.728855	790.611444	1179.946503	-654.250875	775.587068	1155.616183	-567.426204	869.089892	1124.403221	-17.137097	946.143578	988.497406	-51.540914	854.149882	1120.660787	-651.969354	1021.875905	1098.9728	-562.236322	1007.361599	1040.547126	-600.680845	990.215631	990.222981	-238.988664	730.745354	443.060827	-272.994392	914.566588	194.313243	-369.754348	792.680266	1186.519397	-99.341949	966.4024460000001	1001.890343	-116.895344	925.169326	874.097576	-191.417922	973.874532	1012.412749	-475.435211	
